<svg version="1.1" id="Layer_1" xmlns="http://www.w3.org/2000/svg" xmlns:xlink="http://www.w3.org/1999/xlink" x="0px" y="0px"
	 width="100%" viewBox="0 0 527 100" enable-background="new 0 0 527 100" xml:space="preserve">
<path fill="#FEFEFF" opacity="1.000000" stroke="none" 
	d="
M528.000000,90.000000 
	C528.000000,93.663376 528.000000,97.326752 528.000000,100.995064 
	C370.644653,101.000000 213.289307,101.000000 55.640030,100.663254 
	C61.649776,97.513954 68.734222,95.739265 74.110909,91.694466 
	C90.318214,79.501976 100.521889,62.851265 105.626221,43.334442 
	C109.521957,28.438787 104.674850,18.186653 90.922279,11.152470 
	C85.792480,8.528672 80.219742,6.632960 74.674248,4.997818 
	C68.892570,3.293033 62.900234,2.302697 57.000000,1.000000 
	C214.000015,1.000000 371.000031,1.000000 528.000000,1.000000 
	C528.000000,19.429525 528.000000,37.747780 527.691650,56.333874 
	C526.438782,50.786133 523.648315,46.161900 518.037903,43.985825 
	C509.206787,40.560551 501.190399,42.396152 493.586517,49.712006 
	C493.586517,40.840904 493.586517,33.099377 493.586517,25.112202 
	C489.503906,25.112202 485.936035,25.112202 482.117737,25.112202 
	C482.117737,46.771492 482.117737,68.156921 482.117737,89.746239 
	C485.970306,89.746239 489.541687,89.746239 493.635010,89.746239 
	C493.635010,81.865936 493.563477,74.237549 493.654510,66.611099 
	C493.751495,58.482941 498.271973,53.675957 505.647522,53.642384 
	C512.682190,53.610363 515.967163,57.667671 515.986389,66.462914 
	C516.003418,74.240532 515.989929,82.018227 515.989929,89.960144 
	C520.058105,89.960144 523.522095,89.960144 527.238037,90.008629 
	C527.659973,90.038078 527.830017,90.019035 528.000000,90.000000 
M150.820282,31.205151 
	C139.719330,37.419743 133.770905,46.688072 133.992111,59.609379 
	C134.216156,72.697350 140.328583,82.350677 152.030472,87.735428 
	C164.656036,93.545204 177.117035,92.316200 188.064194,83.389076 
	C198.355942,74.996437 201.440216,63.713608 198.332169,51.106091 
	C193.466263,31.367970 171.656479,22.148426 150.820282,31.205151 
M385.587036,45.955791 
	C375.174866,54.063648 372.166809,69.704109 379.710358,80.864952 
	C382.229767,84.592438 386.575592,87.766403 390.783783,89.524696 
	C398.680634,92.824226 406.272827,90.615189 412.955963,84.804901 
	C413.297424,86.927048 413.527710,88.358368 413.764557,89.830521 
	C417.614288,89.830521 421.180695,89.830521 424.819672,89.830521 
	C424.819672,74.114227 424.819672,58.729336 424.819672,43.240173 
	C421.041901,43.240173 417.607452,43.240173 414.166901,43.240173 
	C413.903229,45.048378 413.675171,46.612267 413.352448,48.825516 
	C404.683777,41.441494 395.731598,40.491493 385.587036,45.955791 
M356.618195,89.336662 
	C360.261993,87.325264 363.905823,85.313873 368.066711,83.017036 
	C365.231171,80.029991 363.326324,78.023392 361.467102,76.064857 
	C349.313751,84.306610 337.978577,82.005928 336.284119,70.781250 
	C347.414032,70.781250 358.481171,70.781250 369.463165,70.781250 
	C371.313171,58.453979 366.894867,48.321117 358.277710,44.489033 
	C349.083405,40.400295 337.172455,42.329773 330.375977,49.008884 
	C323.407837,55.856705 321.322601,67.801109 325.445801,77.249268 
	C329.360718,86.220207 337.796021,91.060707 348.973297,90.599480 
	C351.279846,90.504295 353.567810,89.959389 356.618195,89.336662 
M238.131805,60.481796 
	C238.107880,63.978416 238.304337,67.493614 238.011429,70.967560 
	C237.496750,77.071602 232.600067,80.855980 226.600327,80.086426 
	C221.572647,79.441559 218.113525,75.305672 218.043335,69.461090 
	C217.938248,60.709682 218.016037,51.956078 218.016037,43.210876 
	C213.830490,43.210876 210.382782,43.210876 206.730865,43.210876 
	C206.592484,44.367863 206.374069,45.332188 206.378021,46.295601 
	C206.414169,55.118130 205.952927,63.985359 206.686493,72.751709 
	C207.629242,84.018150 215.508255,90.465668 227.383499,90.859474 
	C239.292404,91.254395 248.276352,84.910728 249.380371,73.674271 
	C250.362717,63.676113 249.586624,53.505184 249.586624,43.299641 
	C245.691269,43.299641 242.126480,43.299641 238.131912,43.299641 
	C238.131912,48.898293 238.131912,54.193493 238.131805,60.481796 
M470.886414,56.324665 
	C472.652344,54.839859 474.418274,53.355053 476.091248,51.948410 
	C469.281891,43.013687 456.776947,40.012192 446.231262,44.210617 
	C437.008026,47.882549 431.270386,57.750168 432.174561,68.385452 
	C433.135071,79.683861 439.882263,87.816071 449.785065,89.951912 
	C460.806854,92.329094 473.671692,87.806282 476.070251,80.459923 
	C473.898682,78.679306 471.644165,76.830673 469.383362,74.976891 
	C468.010193,76.137459 467.062958,77.082588 465.979614,77.830528 
	C458.171021,83.221527 447.701721,80.207642 444.905151,71.795891 
	C442.846741,65.604454 444.534210,58.842545 448.990417,55.425652 
	C453.448853,52.007008 460.388153,52.119736 465.914886,55.474735 
	C467.204498,56.257595 468.893951,56.381824 470.886414,56.324665 
M261.299225,31.750269 
	C260.575409,33.301674 259.244202,34.845039 259.223511,36.405743 
	C259.053802,49.229572 259.145874,62.056656 259.119904,74.882675 
	C259.107391,81.062149 260.397827,86.699852 266.664978,89.400482 
	C273.090088,92.169182 279.198120,90.855225 285.141205,87.057388 
	C284.154816,84.101166 283.289917,81.509102 282.405304,78.857880 
	C280.103333,79.406662 278.361084,79.999374 276.573883,80.208855 
	C273.448883,80.575134 271.152374,79.237335 271.067810,75.943939 
	C270.881134,68.673203 271.009796,61.394371 271.009796,53.577816 
	C275.575195,53.577816 279.661499,53.577816 283.863342,53.577816 
	C283.863342,50.444420 283.863342,47.867271 283.863342,44.762871 
	C279.497528,44.762871 275.414825,44.762871 270.717896,44.762871 
	C270.717896,39.857353 270.717896,35.477112 270.717896,30.687016 
	C267.421753,31.020397 264.793518,31.286222 261.299225,31.750269 
M293.352692,78.475487 
	C293.352692,82.247200 293.352692,86.018921 293.352692,89.795059 
	C297.610596,89.795059 301.164703,89.795059 305.020416,89.795059 
	C305.020416,82.121834 304.912292,74.818100 305.049255,67.518959 
	C305.202087,59.371941 309.843628,54.571152 317.916321,53.873852 
	C318.853149,53.792927 319.784149,53.643982 320.591400,53.542477 
	C320.591400,49.633492 320.591400,46.108608 320.591400,40.908264 
	C314.757538,43.892990 309.940918,46.357262 305.116211,48.825680 
	C305.051025,47.431496 304.955597,45.391785 304.858032,43.305618 
	C300.912201,43.305618 297.351959,43.305618 293.353149,43.305618 
	C293.353149,54.909481 293.353149,66.196770 293.352692,78.475487 
z"/>
<path fill="#5A53FF" opacity="1.000000" stroke="none" 
	d="
M56.583336,1.000000 
	C62.900234,2.302697 68.892570,3.293033 74.674248,4.997818 
	C80.219742,6.632960 85.792480,8.528672 90.922279,11.152470 
	C104.674850,18.186653 109.521957,28.438787 105.626221,43.334442 
	C100.521889,62.851265 90.318214,79.501976 74.110909,91.694466 
	C68.734222,95.739265 61.649776,97.513954 55.173050,100.663254 
	C51.638714,101.000000 48.277424,101.000000 44.303204,100.668030 
	C37.895405,97.514694 31.467283,95.527969 26.431002,91.706802 
	C14.065402,82.324692 6.961974,69.236389 2.993752,54.359299 
	C2.504757,52.526028 1.672948,50.784203 1.000000,49.000000 
	C1.000000,44.643101 1.000000,40.286201 1.309540,35.238621 
	C4.547251,16.830961 14.555263,6.465225 32.097130,2.886030 
	C34.429272,2.410187 36.700539,1.636014 39.000000,1.000000 
	C40.714359,1.000000 42.428715,1.000000 44.822021,1.287742 
	C47.667316,1.383656 49.833656,1.191828 52.000000,1.000000 
	C53.388889,1.000000 54.777779,1.000000 56.583336,1.000000 
M35.418686,56.864910 
	C41.089119,65.619568 49.465805,69.270996 57.784229,66.614128 
	C67.401756,63.542332 75.738670,52.369431 74.878883,43.252670 
	C74.654266,40.870899 73.746544,38.332180 72.455391,36.310871 
	C67.003487,27.775866 51.981709,25.105192 41.771305,30.635885 
	C32.896072,35.443352 30.240793,45.569206 35.418686,56.864910 
z"/>
<path fill="#5D57FF" opacity="1.000000" stroke="none" 
	d="
M526.986084,89.960144 
	C523.522095,89.960144 520.058105,89.960144 515.989929,89.960144 
	C515.989929,82.018227 516.003418,74.240532 515.986389,66.462914 
	C515.967163,57.667671 512.682190,53.610363 505.647522,53.642384 
	C498.271973,53.675957 493.751495,58.482941 493.654510,66.611099 
	C493.563477,74.237549 493.635010,81.865936 493.635010,89.746239 
	C489.541687,89.746239 485.970306,89.746239 482.117737,89.746239 
	C482.117737,68.156921 482.117737,46.771492 482.117737,25.112202 
	C485.936035,25.112202 489.503906,25.112202 493.586517,25.112202 
	C493.586517,33.099377 493.586517,40.840904 493.586517,49.712006 
	C501.190399,42.396152 509.206787,40.560551 518.037903,43.985825 
	C523.648315,46.161900 526.438782,50.786133 527.691650,56.800858 
	C528.000000,57.000000 528.000000,57.500000 527.696777,58.038532 
	C527.257751,69.038094 527.121948,79.499115 526.986084,89.960144 
z"/>
<path fill="#FDFDFF" opacity="1.000000" stroke="none" 
	d="
M1.000000,49.468658 
	C1.672948,50.784203 2.504757,52.526028 2.993752,54.359299 
	C6.961974,69.236389 14.065402,82.324692 26.431002,91.706802 
	C31.467283,95.527969 37.895405,97.514694 43.845135,100.668030 
	C29.732998,101.000000 15.465994,101.000000 1.000000,101.000000 
	C1.000000,83.979622 1.000000,66.958473 1.000000,49.468658 
z"/>
<path fill="#FCFCFF" opacity="1.000000" stroke="none" 
	d="
M38.531342,1.000000 
	C36.700539,1.636014 34.429272,2.410187 32.097130,2.886030 
	C14.555263,6.465225 4.547251,16.830961 1.309540,34.773972 
	C1.000000,23.735983 1.000000,12.471968 1.000000,1.000000 
	C13.353451,1.000000 25.708067,1.000000 38.531342,1.000000 
z"/>
<path fill="#837DFF" opacity="1.000000" stroke="none" 
	d="
M527.238037,90.008629 
	C527.121948,79.499115 527.257751,69.038094 527.696777,58.288532 
	C528.000000,68.354225 528.000000,78.708458 528.000000,89.531342 
	C527.830017,90.019035 527.659973,90.038078 527.238037,90.008629 
z"/>
<path fill="#8680FF" opacity="1.000000" stroke="none" 
	d="
M51.562500,1.000000 
	C49.833656,1.191828 47.667316,1.383656 45.250488,1.287742 
	C47.041668,1.000000 49.083332,1.000000 51.562500,1.000000 
z"/>
<path fill="#5D56FF" opacity="1.000000" stroke="none" 
	d="
M151.166107,31.053253 
	C171.656479,22.148426 193.466263,31.367970 198.332169,51.106091 
	C201.440216,63.713608 198.355942,74.996437 188.064194,83.389076 
	C177.117035,92.316200 164.656036,93.545204 152.030472,87.735428 
	C140.328583,82.350677 134.216156,72.697350 133.992111,59.609379 
	C133.770905,46.688072 139.719330,37.419743 151.166107,31.053253 
M146.015854,60.300674 
	C147.940872,74.219002 159.376801,82.779160 171.552704,79.415848 
	C181.854233,76.570290 188.478943,66.431374 186.772675,56.122158 
	C184.960602,45.173729 176.185776,37.996834 165.366226,38.613930 
	C154.319580,39.243977 146.581345,47.571365 146.015854,60.300674 
z"/>
<path fill="#5D56FF" opacity="1.000000" stroke="none" 
	d="
M385.896545,45.754921 
	C395.731598,40.491493 404.683777,41.441494 413.352448,48.825516 
	C413.675171,46.612267 413.903229,45.048378 414.166901,43.240173 
	C417.607452,43.240173 421.041901,43.240173 424.819672,43.240173 
	C424.819672,58.729336 424.819672,74.114227 424.819672,89.830521 
	C421.180695,89.830521 417.614288,89.830521 413.764557,89.830521 
	C413.527710,88.358368 413.297424,86.927048 412.955963,84.804901 
	C406.272827,90.615189 398.680634,92.824226 390.783783,89.524696 
	C386.575592,87.766403 382.229767,84.592438 379.710358,80.864952 
	C372.166809,69.704109 375.174866,54.063648 385.896545,45.754921 
M387.999115,71.213249 
	C391.413147,79.399147 397.550232,82.650246 404.842468,80.135956 
	C411.755768,77.752319 415.082825,70.306602 412.969452,61.948467 
	C411.253296,55.161343 405.002594,51.497425 397.455017,52.854572 
	C390.330566,54.135624 386.229309,61.645042 387.999115,71.213249 
z"/>
<path fill="#5E57FF" opacity="1.000000" stroke="none" 
	d="
M356.241272,89.479218 
	C353.567810,89.959389 351.279846,90.504295 348.973297,90.599480 
	C337.796021,91.060707 329.360718,86.220207 325.445801,77.249268 
	C321.322601,67.801109 323.407837,55.856705 330.375977,49.008884 
	C337.172455,42.329773 349.083405,40.400295 358.277710,44.489033 
	C366.894867,48.321117 371.313171,58.453979 369.463165,70.781250 
	C358.481171,70.781250 347.414032,70.781250 336.284119,70.781250 
	C337.978577,82.005928 349.313751,84.306610 361.467102,76.064857 
	C363.326324,78.023392 365.231171,80.029991 368.066711,83.017036 
	C363.905823,85.313873 360.261993,87.325264 356.241272,89.479218 
M344.582062,62.862488 
	C349.327545,62.862488 354.073059,62.862488 358.811462,62.862488 
	C358.759003,56.028759 355.035065,52.196968 348.729858,51.853687 
	C341.433289,51.456440 336.846130,55.196686 335.722260,62.862373 
	C338.389709,62.862373 341.004608,62.862373 344.582062,62.862488 
z"/>
<path fill="#5F58FF" opacity="1.000000" stroke="none" 
	d="
M238.131866,59.985245 
	C238.131912,54.193493 238.131912,48.898293 238.131912,43.299641 
	C242.126480,43.299641 245.691269,43.299641 249.586624,43.299641 
	C249.586624,53.505184 250.362717,63.676113 249.380371,73.674271 
	C248.276352,84.910728 239.292404,91.254395 227.383499,90.859474 
	C215.508255,90.465668 207.629242,84.018150 206.686493,72.751709 
	C205.952927,63.985359 206.414169,55.118130 206.378021,46.295601 
	C206.374069,45.332188 206.592484,44.367863 206.730865,43.210876 
	C210.382782,43.210876 213.830490,43.210876 218.016037,43.210876 
	C218.016037,51.956078 217.938248,60.709682 218.043335,69.461090 
	C218.113525,75.305672 221.572647,79.441559 226.600327,80.086426 
	C232.600067,80.855980 237.496750,77.071602 238.011429,70.967560 
	C238.304337,67.493614 238.107880,63.978416 238.131866,59.985245 
z"/>
<path fill="#5E57FF" opacity="1.000000" stroke="none" 
	d="
M470.642914,56.566879 
	C468.893951,56.381824 467.204498,56.257595 465.914886,55.474735 
	C460.388153,52.119736 453.448853,52.007008 448.990417,55.425652 
	C444.534210,58.842545 442.846741,65.604454 444.905151,71.795891 
	C447.701721,80.207642 458.171021,83.221527 465.979614,77.830528 
	C467.062958,77.082588 468.010193,76.137459 469.383362,74.976891 
	C471.644165,76.830673 473.898682,78.679306 476.070251,80.459923 
	C473.671692,87.806282 460.806854,92.329094 449.785065,89.951912 
	C439.882263,87.816071 433.135071,79.683861 432.174561,68.385452 
	C431.270386,57.750168 437.008026,47.882549 446.231262,44.210617 
	C456.776947,40.012192 469.281891,43.013687 476.091248,51.948410 
	C474.418274,53.355053 472.652344,54.839859 470.642914,56.566879 
z"/>
<path fill="#6059FF" opacity="1.000000" stroke="none" 
	d="
M261.732239,31.651157 
	C264.793518,31.286222 267.421753,31.020397 270.717896,30.687016 
	C270.717896,35.477112 270.717896,39.857353 270.717896,44.762871 
	C275.414825,44.762871 279.497528,44.762871 283.863342,44.762871 
	C283.863342,47.867271 283.863342,50.444420 283.863342,53.577816 
	C279.661499,53.577816 275.575195,53.577816 271.009796,53.577816 
	C271.009796,61.394371 270.881134,68.673203 271.067810,75.943939 
	C271.152374,79.237335 273.448883,80.575134 276.573883,80.208855 
	C278.361084,79.999374 280.103333,79.406662 282.405304,78.857880 
	C283.289917,81.509102 284.154816,84.101166 285.141205,87.057388 
	C279.198120,90.855225 273.090088,92.169182 266.664978,89.400482 
	C260.397827,86.699852 259.107391,81.062149 259.119904,74.882675 
	C259.145874,62.056656 259.053802,49.229572 259.223511,36.405743 
	C259.244202,34.845039 260.575409,33.301674 261.732239,31.651157 
z"/>
<path fill="#6059FF" opacity="1.000000" stroke="none" 
	d="
M293.352905,77.979767 
	C293.353149,66.196770 293.353149,54.909481 293.353149,43.305618 
	C297.351959,43.305618 300.912201,43.305618 304.858032,43.305618 
	C304.955597,45.391785 305.051025,47.431496 305.116211,48.825680 
	C309.940918,46.357262 314.757538,43.892990 320.591400,40.908264 
	C320.591400,46.108608 320.591400,49.633492 320.591400,53.542477 
	C319.784149,53.643982 318.853149,53.792927 317.916321,53.873852 
	C309.843628,54.571152 305.202087,59.371941 305.049255,67.518959 
	C304.912292,74.818100 305.020416,82.121834 305.020416,89.795059 
	C301.164703,89.795059 297.610596,89.795059 293.352692,89.795059 
	C293.352692,86.018921 293.352692,82.247200 293.352905,77.979767 
z"/>
<path fill="#FEFEFF" opacity="1.000000" stroke="none" 
	d="
M35.246048,56.521545 
	C30.240793,45.569206 32.896072,35.443352 41.771305,30.635885 
	C51.981709,25.105192 67.003487,27.775866 72.455391,36.310871 
	C73.746544,38.332180 74.654266,40.870899 74.878883,43.252670 
	C75.738670,52.369431 67.401756,63.542332 57.784229,66.614128 
	C49.465805,69.270996 41.089119,65.619568 35.246048,56.521545 
z"/>
<path fill="#FEFEFF" opacity="1.000000" stroke="none" 
	d="
M146.012222,59.873016 
	C146.581345,47.571365 154.319580,39.243977 165.366226,38.613930 
	C176.185776,37.996834 184.960602,45.173729 186.772675,56.122158 
	C188.478943,66.431374 181.854233,76.570290 171.552704,79.415848 
	C159.376801,82.779160 147.940872,74.219002 146.012222,59.873016 
z"/>
<path fill="#FDFDFF" opacity="1.000000" stroke="none" 
	d="
M387.926147,70.824326 
	C386.229309,61.645042 390.330566,54.135624 397.455017,52.854572 
	C405.002594,51.497425 411.253296,55.161343 412.969452,61.948467 
	C415.082825,70.306602 411.755768,77.752319 404.842468,80.135956 
	C397.550232,82.650246 391.413147,79.399147 387.926147,70.824326 
z"/>
<path fill="#F7F7FF" opacity="1.000000" stroke="none" 
	d="
M344.100769,62.862431 
	C341.004608,62.862373 338.389709,62.862373 335.722260,62.862373 
	C336.846130,55.196686 341.433289,51.456440 348.729858,51.853687 
	C355.035065,52.196968 358.759003,56.028759 358.811462,62.862488 
	C354.073059,62.862488 349.327545,62.862488 344.100769,62.862431 
z"/>
</svg>